<svg xmlns="http://www.w3.org/2000/svg" viewBox="0 0 185 38"><style>.st0{fill:#000}</style><path class="st0" d="M34.5 28.2c-1.4-3-2.1-6.1-2.1-9.2 0-3.2.7-6.2 2.1-9.2s3.3-5.6 5.9-7.7c.1-.1.2-.3.2-.4 0-.2-.1-.4-.4-.4H18.1c-3.2 0-6.1.8-8.8 2.4s-4.8 3.7-6.4 6.4S.5 15.8.5 18.9c0 3.2.8 6.1 2.4 8.8s3.7 4.8 6.4 6.4 5.7 2.4 8.8 2.4h22.1c.2 0 .4-.1.4-.4 0-.1-.1-.2-.2-.4-2.5-1.9-4.5-4.5-5.9-7.5zM84.2 1.7c-.7-.4-1.6-.6-2.5-.6s-1.8.2-2.5.6-1.1 1-1.1 1.8v31.1c0 .8.4 1.4 1.1 1.8s1.6.6 2.5.6 1.8-.2 2.5-.6 1.1-1 1.1-1.8V3.4c.1-.8-.3-1.4-1.1-1.7z"/><path class="st0" d="M64.5 3.3C61.7 1.7 58.7.9 55.4.9s-6.3.8-9.1 2.4-5 3.8-6.6 6.6-2.4 5.8-2.4 9.1.8 6.3 2.4 9.1 3.8 5 6.6 6.6 5.8 2.4 9.1 2.4 6.3-.8 9.1-2.4 5-3.8 6.6-6.6 2.4-5.8 2.4-9.1-.8-6.3-2.4-9.1-3.8-5-6.6-6.6zm.4 21.3c-.9 1.7-2.2 3-3.9 3.9s-3.5 1.4-5.6 1.4c-2 0-3.9-.5-5.6-1.4s-3-2.2-3.9-3.9-1.4-3.6-1.4-5.6.5-3.9 1.4-5.6 2.2-3 3.9-3.9 3.5-1.4 5.6-1.4c2 0 3.9.5 5.6 1.4s3 2.2 3.9 3.9 1.4 3.5 1.4 5.6c0 2-.5 3.9-1.4 5.6zM182.4 1.6c-.7-.4-1.6-.6-2.5-.6s-1.8.2-2.5.6-1.1 1-1.1 1.8v20.3L161.5 3.1c-.5-.7-1.1-1.3-1.8-1.6-.6-.3-1.4-.5-2.2-.5-.9 0-1.7.2-2.3.6-.7.4-1 1-1 1.9v31c0 .8.4 1.4 1.1 1.8s1.6.6 2.5.6 1.8-.2 2.5-.6 1.1-1 1.1-1.8V14.4l14.7 20.5c.5.7 1.1 1.3 1.8 1.6.6.3 1.4.5 2.2.5.9 0 1.7-.2 2.3-.6.7-.4 1-1 1-1.9v-31c.1-.9-.3-1.5-1-1.9zM118.6 31l-10.7-12.3 10-11.4c.7-.8 1.1-1.5 1.1-2.2 0-.6-.2-1.2-.7-1.8s-1-1.1-1.6-1.5-1.2-.6-1.7-.6-.9.1-1.2.3-.7.5-1.1.9l-12.5 14.3V3.4c0-.8-.4-1.4-1.1-1.8S97.5 1 96.6 1s-1.8.2-2.5.6-1.1 1-1.1 1.8v31.1c0 .8.4 1.4 1.1 1.8s1.6.6 2.5.6 1.8-.2 2.5-.6 1.1-1 1.1-1.8v-14L113 35.7c.4.4.8.7 1.1.9s.7.3 1.2.3c.6 0 1.3-.2 2-.6s1.3-.8 1.7-1.4.7-1.1.7-1.7c0-.4-.1-.7-.2-1-.2-.3-.5-.7-.9-1.2zM146.1 8c.7 0 1.3-.3 1.7-1s.6-1.4.6-2.3-.2-1.7-.6-2.3c-.4-.7-1-1-1.7-1h-18.8a2.732 2.732 0 00-2.7 2.7v29.8a2.732 2.732 0 002.7 2.7h18.8c.7 0 1.3-.3 1.7-1s.6-1.4.6-2.3-.2-1.7-.6-2.3c-.4-.7-1-1-1.7-1h-14.3v-7.7h9.9c.7 0 1.3-.3 1.7-1s.6-1.4.6-2.3-.2-1.7-.6-2.3c-.4-.7-1-1-1.7-1h-9.9V8h14.3z"/></svg>